<?xml version="1.0" encoding="UTF-8" standalone="no"?>
<svg
   xmlns:dc="http://purl.org/dc/elements/1.1/"
   xmlns:cc="http://creativecommons.org/ns#"
   xmlns:rdf="http://www.w3.org/1999/02/22-rdf-syntax-ns#"
   xmlns:svg="http://www.w3.org/2000/svg"
   xmlns="http://www.w3.org/2000/svg"
   xmlns:sodipodi="http://sodipodi.sourceforge.net/DTD/sodipodi-0.dtd"
   xmlns:inkscape="http://www.inkscape.org/namespaces/inkscape"
   aria-hidden="true"
   focusable="false"
   data-prefix="fab"
   data-icon="instagram"
   class="svg-inline--fa fa-instagram fa-w-14"
   role="img"
   viewBox="0 0 50 50"
   version="1.1"
   id="svg4"
   sodipodi:docname="icon-instagram.svg"
   width="50"
   height="50"
   inkscape:version="0.92.3 (2405546, 2018-03-11)">
  <metadata
     id="metadata10">
    <rdf:RDF>
      <cc:Work
         rdf:about="">
        <dc:format>image/svg+xml</dc:format>
        <dc:type
           rdf:resource="http://purl.org/dc/dcmitype/StillImage" />
        <dc:title></dc:title>
      </cc:Work>
    </rdf:RDF>
  </metadata>
  <defs
     id="defs8" />
  <sodipodi:namedview
     pagecolor="#ffffff"
     bordercolor="#666666"
     borderopacity="1"
     objecttolerance="10"
     gridtolerance="10"
     guidetolerance="10"
     inkscape:pageopacity="0"
     inkscape:pageshadow="2"
     inkscape:window-width="1360"
     inkscape:window-height="740"
     id="namedview6"
     showgrid="false"
     inkscape:zoom="5.2149125"
     inkscape:cx="-24.483136"
     inkscape:cy="12.522523"
     inkscape:window-x="0"
     inkscape:window-y="0"
     inkscape:window-maximized="1"
     inkscape:current-layer="svg4" />
  <path
     d="m 24.930577,12.17496 c -7.094255,0 -12.816508,5.72353 -12.816508,12.81937 0,7.09584 5.722253,12.81937 12.816508,12.81937 7.094256,0 12.816509,-5.72353 12.816509,-12.81937 0,-7.09584 -5.722253,-12.81937 -12.816509,-12.81937 z m 0,21.15363 c -4.584495,0 -8.332404,-3.73758 -8.332404,-8.33426 0,-4.59667 3.736754,-8.33427 8.332404,-8.33427 4.59565,0 8.332404,3.7376 8.332404,8.33427 0,4.59668 -3.747908,8.33426 -8.332404,8.33426 z m 16.330173,-21.678 c 0,1.66239 -1.338539,2.99006 -2.989403,2.99006 -1.662019,0 -2.989403,-1.33883 -2.989403,-2.99006 0,-1.65124 1.338538,-2.99008 2.989403,-2.99008 1.650864,0 2.989403,1.33884 2.989403,2.99008 z m 8.488567,3.03469 C 49.55969,10.67993 48.645022,7.13201 45.711392,4.20888 42.788915,1.28576 39.241788,0.37088 35.237326,0.17006 31.110165,-0.06425 18.739835,-0.06425 14.612674,0.17006 10.619367,0.35972 7.0722393,1.27459 4.1386085,4.19773 1.2049777,7.12085 0.30146403,10.66877 0.10068321,14.67412 c -0.23424428,4.12809 -0.23424428,16.50117 0,20.62926 0.18962633,4.00536 1.10429449,7.55328 4.03792529,10.4764 2.9336308,2.92313 6.4696035,3.83801 10.4740655,4.03883 4.127161,0.23429 16.497491,0.23429 20.624652,0 4.004462,-0.18967 7.551589,-1.10455 10.474066,-4.03883 2.922476,-2.92312 3.837144,-6.47104 4.037925,-10.4764 0.234244,-4.12809 0.234244,-16.49001 0,-20.6181 z M 44.417471,39.7327 c -0.87005,2.18677 -2.554378,3.87147 -4.751813,4.75287 -3.290574,1.30537 -11.098717,1.00413 -14.735081,1.00413 -3.636363,0 -11.455661,0.29008 -14.735081,-1.00413 C 8.0092164,43.61533 6.3248885,41.93062 5.4436838,39.7327 4.1386085,36.44139 4.4397797,28.63151 4.4397797,24.99433 4.4397797,21.35715 4.149763,13.53612 5.4436838,10.25597 6.313734,8.0692 7.9980619,6.38449 10.195496,5.50309 13.486071,4.19773 21.294214,4.49896 24.930577,4.49896 c 3.636364,0 11.455661,-0.29008 14.735081,1.00413 2.18628,0.87024 3.870608,2.55495 4.751813,4.75288 1.305075,3.2913 1.003904,11.10118 1.003904,14.73836 0,3.63718 0.301171,11.45822 -1.003904,14.73837 z"
     id="path2"
     inkscape:connector-curvature="0"
     style="fill:#ffffff;stroke-width:0.11155734" />
</svg>
