<?xml version="1.0" encoding="UTF-8" standalone="no"?>
<svg
   xmlns:dc="http://purl.org/dc/elements/1.1/"
   xmlns:cc="http://creativecommons.org/ns#"
   xmlns:rdf="http://www.w3.org/1999/02/22-rdf-syntax-ns#"
   xmlns:svg="http://www.w3.org/2000/svg"
   xmlns="http://www.w3.org/2000/svg"
   xmlns:sodipodi="http://sodipodi.sourceforge.net/DTD/sodipodi-0.dtd"
   xmlns:inkscape="http://www.inkscape.org/namespaces/inkscape"
   aria-hidden="true"
   focusable="false"
   data-prefix="fab"
   data-icon="facebook-square"
   class="svg-inline--fa fa-facebook-square fa-w-14"
   role="img"
   viewBox="0 0 50 50"
   version="1.1"
   id="svg4"
   sodipodi:docname="icon-facebook.svg"
   width="50"
   height="50"
   inkscape:version="0.92.3 (2405546, 2018-03-11)">
  <metadata
     id="metadata10">
    <rdf:RDF>
      <cc:Work
         rdf:about="">
        <dc:format>image/svg+xml</dc:format>
        <dc:type
           rdf:resource="http://purl.org/dc/dcmitype/StillImage" />
        <dc:title></dc:title>
      </cc:Work>
    </rdf:RDF>
  </metadata>
  <defs
     id="defs8" />
  <sodipodi:namedview
     pagecolor="#ffffff"
     bordercolor="#666666"
     borderopacity="1"
     objecttolerance="10"
     gridtolerance="10"
     guidetolerance="10"
     inkscape:pageopacity="0"
     inkscape:pageshadow="2"
     inkscape:window-width="1360"
     inkscape:window-height="740"
     id="namedview6"
     showgrid="false"
     inkscape:zoom="3.6875"
     inkscape:cx="139.87102"
     inkscape:cy="47.878014"
     inkscape:window-x="0"
     inkscape:window-y="0"
     inkscape:window-maximized="1"
     inkscape:current-layer="svg4" />
  <path
     d="M 44.665125,0.0066 H 5.3794087 A 5.3571429,5.3571429 0 0 0 0.02226627,5.36374 V 44.64946 A 5.3571429,5.3571429 0 0 0 5.3794087,50.0066 H 20.697491 V 33.00772 h -7.03125 V 25.0066 h 7.03125 v -6.09821 c 0,-6.93639 4.129464,-10.76786 10.454241,-10.76786 3.029018,0 6.196429,0.54018 6.196429,0.54018 v 6.80803 h -3.489955 c -3.438617,0 -4.511161,2.13393 -4.511161,4.32255 v 5.19531 h 7.676339 l -1.227679,8.00112 h -6.44866 V 50.0066 h 15.31808 a 5.3571429,5.3571429 0 0 0 5.357143,-5.35714 V 5.36374 A 5.3571429,5.3571429 0 0 0 44.665125,0.0066 Z"
     id="path2"
     inkscape:connector-curvature="0"
     style="fill:#ffffff;stroke-width:0.11160714" />
</svg>
